<mxfile host="app.diagrams.net" modified="2021-12-19T15:51:51.356Z" agent="5.0 (Macintosh; Intel Mac OS X 10_15_7) AppleWebKit/537.36 (KHTML, like Gecko) Chrome/96.0.4664.110 Safari/537.36" etag="VhVqgK6hch1_53RSqqK1" version="16.0.0" type="github">
  <diagram id="kTX-4ixogZl054YeOW0R" name="第 1 页">
    <mxGraphModel dx="1246" dy="765" grid="0" gridSize="10" guides="1" tooltips="1" connect="1" arrows="1" fold="1" page="1" pageScale="1" pageWidth="1169" pageHeight="1654" background="#000000" math="0" shadow="0">
      <root>
        <mxCell id="0" />
        <mxCell id="1" parent="0" />
        <mxCell id="fInblSoTqD6ojxP8-tg6-53" value="" style="group" vertex="1" connectable="0" parent="1">
          <mxGeometry x="140" y="133" width="875" height="431" as="geometry" />
        </mxCell>
        <mxCell id="fInblSoTqD6ojxP8-tg6-9" value="" style="rounded=0;whiteSpace=wrap;html=1;fontSize=28;fontColor=#FFFFFF;strokeColor=#FFFFFF;strokeWidth=2;fillColor=none;dashed=1;" vertex="1" parent="fInblSoTqD6ojxP8-tg6-53">
          <mxGeometry width="152.36318407960198" height="368.3849878934625" as="geometry" />
        </mxCell>
        <mxCell id="fInblSoTqD6ojxP8-tg6-17" style="edgeStyle=orthogonalEdgeStyle;rounded=0;orthogonalLoop=1;jettySize=auto;html=1;fontSize=28;fontColor=#FFFFFF;strokeWidth=2;strokeColor=#FFFFFF;dashed=1;" edge="1" parent="fInblSoTqD6ojxP8-tg6-53" source="fInblSoTqD6ojxP8-tg6-1">
          <mxGeometry relative="1" as="geometry">
            <mxPoint x="257.92910447761193" y="65.7457627118644" as="targetPoint" />
          </mxGeometry>
        </mxCell>
        <mxCell id="fInblSoTqD6ojxP8-tg6-1" value="&lt;font color=&quot;#ffffff&quot; style=&quot;font-size: 28px&quot;&gt;KEY&lt;/font&gt;" style="rounded=0;whiteSpace=wrap;html=1;fillColor=#ffcd28;strokeWidth=2;strokeColor=#d79b00;gradientColor=#ffa500;" vertex="1" parent="fInblSoTqD6ojxP8-tg6-53">
          <mxGeometry x="29.384328358208954" y="34.43825665859564" width="92.50621890547264" height="62.615012106537534" as="geometry" />
        </mxCell>
        <mxCell id="fInblSoTqD6ojxP8-tg6-6" value="&lt;font color=&quot;#ffffff&quot; style=&quot;font-size: 28px&quot;&gt;KEY&lt;/font&gt;" style="rounded=0;whiteSpace=wrap;html=1;fillColor=#ffcd28;strokeWidth=2;strokeColor=#d79b00;gradientColor=#ffa500;" vertex="1" parent="fInblSoTqD6ojxP8-tg6-53">
          <mxGeometry x="29.384328358208954" y="112.70702179176756" width="92.50621890547264" height="62.615012106537534" as="geometry" />
        </mxCell>
        <mxCell id="fInblSoTqD6ojxP8-tg6-7" value="&lt;font color=&quot;#ffffff&quot; style=&quot;font-size: 28px&quot;&gt;KEY&lt;/font&gt;" style="rounded=0;whiteSpace=wrap;html=1;fillColor=#ffcd28;strokeWidth=2;strokeColor=#d79b00;gradientColor=#ffa500;" vertex="1" parent="fInblSoTqD6ojxP8-tg6-53">
          <mxGeometry x="29.384328358208954" y="190.97578692493946" width="92.50621890547264" height="62.615012106537534" as="geometry" />
        </mxCell>
        <mxCell id="fInblSoTqD6ojxP8-tg6-8" value="&lt;font color=&quot;#ffffff&quot; style=&quot;font-size: 28px&quot;&gt;KEY&lt;/font&gt;" style="rounded=0;whiteSpace=wrap;html=1;fillColor=#ffcd28;strokeWidth=2;strokeColor=#d79b00;gradientColor=#ffa500;" vertex="1" parent="fInblSoTqD6ojxP8-tg6-53">
          <mxGeometry x="29.384328358208954" y="269.24455205811137" width="92.50621890547264" height="62.615012106537534" as="geometry" />
        </mxCell>
        <mxCell id="fInblSoTqD6ojxP8-tg6-10" value="KEY DIR" style="text;html=1;align=center;verticalAlign=middle;resizable=0;points=[];autosize=1;strokeColor=none;fillColor=none;fontSize=28;fontColor=#FFFFFF;" vertex="1" parent="fInblSoTqD6ojxP8-tg6-53">
          <mxGeometry x="9.250621890547263" y="391.3438256658596" width="122" height="38" as="geometry" />
        </mxCell>
        <mxCell id="fInblSoTqD6ojxP8-tg6-30" value="" style="group" vertex="1" connectable="0" parent="fInblSoTqD6ojxP8-tg6-53">
          <mxGeometry x="276.4303482587065" y="34.43825665859564" width="598.5696517412936" height="62.615012106537534" as="geometry" />
        </mxCell>
        <mxCell id="fInblSoTqD6ojxP8-tg6-11" value="FILE ID" style="rounded=0;whiteSpace=wrap;html=1;dashed=1;fontSize=28;fontColor=#FFFFFF;strokeColor=#FFFFFF;strokeWidth=2;fillColor=none;" vertex="1" parent="fInblSoTqD6ojxP8-tg6-30">
          <mxGeometry width="130.59701492537314" height="62.615012106537534" as="geometry" />
        </mxCell>
        <mxCell id="fInblSoTqD6ojxP8-tg6-14" value="VSZ" style="rounded=0;whiteSpace=wrap;html=1;dashed=1;fontSize=28;fontColor=#FFFFFF;strokeColor=#FFFFFF;strokeWidth=2;fillColor=none;" vertex="1" parent="fInblSoTqD6ojxP8-tg6-30">
          <mxGeometry x="130.59701492537314" width="130.59701492537314" height="62.615012106537534" as="geometry" />
        </mxCell>
        <mxCell id="fInblSoTqD6ojxP8-tg6-15" value="VPOS" style="rounded=0;whiteSpace=wrap;html=1;dashed=1;fontSize=28;fontColor=#FFFFFF;strokeColor=#FFFFFF;strokeWidth=2;fillColor=none;" vertex="1" parent="fInblSoTqD6ojxP8-tg6-30">
          <mxGeometry x="261.1940298507463" width="130.59701492537314" height="62.615012106537534" as="geometry" />
        </mxCell>
        <mxCell id="fInblSoTqD6ojxP8-tg6-16" value="TSTAMP" style="rounded=0;whiteSpace=wrap;html=1;dashed=1;fontSize=28;fontColor=#FFFFFF;strokeColor=#FFFFFF;strokeWidth=2;fillColor=none;" vertex="1" parent="fInblSoTqD6ojxP8-tg6-30">
          <mxGeometry x="391.7910447761194" width="206.77860696517413" height="62.615012106537534" as="geometry" />
        </mxCell>
        <mxCell id="fInblSoTqD6ojxP8-tg6-35" value="" style="group" vertex="1" connectable="0" parent="fInblSoTqD6ojxP8-tg6-53">
          <mxGeometry x="275.34203980099505" y="113.75060532687651" width="598.5696517412936" height="62.615012106537534" as="geometry" />
        </mxCell>
        <mxCell id="fInblSoTqD6ojxP8-tg6-36" value="FILE ID" style="rounded=0;whiteSpace=wrap;html=1;dashed=1;fontSize=28;fontColor=#FFFFFF;strokeColor=#FFFFFF;strokeWidth=2;fillColor=none;" vertex="1" parent="fInblSoTqD6ojxP8-tg6-35">
          <mxGeometry width="130.59701492537314" height="62.615012106537534" as="geometry" />
        </mxCell>
        <mxCell id="fInblSoTqD6ojxP8-tg6-37" value="VSZ" style="rounded=0;whiteSpace=wrap;html=1;dashed=1;fontSize=28;fontColor=#FFFFFF;strokeColor=#FFFFFF;strokeWidth=2;fillColor=none;" vertex="1" parent="fInblSoTqD6ojxP8-tg6-35">
          <mxGeometry x="130.59701492537314" width="130.59701492537314" height="62.615012106537534" as="geometry" />
        </mxCell>
        <mxCell id="fInblSoTqD6ojxP8-tg6-38" value="VPOS" style="rounded=0;whiteSpace=wrap;html=1;dashed=1;fontSize=28;fontColor=#FFFFFF;strokeColor=#FFFFFF;strokeWidth=2;fillColor=none;" vertex="1" parent="fInblSoTqD6ojxP8-tg6-35">
          <mxGeometry x="261.1940298507463" width="130.59701492537314" height="62.615012106537534" as="geometry" />
        </mxCell>
        <mxCell id="fInblSoTqD6ojxP8-tg6-39" value="TSTAMP" style="rounded=0;whiteSpace=wrap;html=1;dashed=1;fontSize=28;fontColor=#FFFFFF;strokeColor=#FFFFFF;strokeWidth=2;fillColor=none;" vertex="1" parent="fInblSoTqD6ojxP8-tg6-35">
          <mxGeometry x="391.7910447761194" width="206.77860696517413" height="62.615012106537534" as="geometry" />
        </mxCell>
        <mxCell id="fInblSoTqD6ojxP8-tg6-40" value="" style="group" vertex="1" connectable="0" parent="fInblSoTqD6ojxP8-tg6-53">
          <mxGeometry x="274.25373134328356" y="195.15012106537532" width="598.5696517412936" height="62.615012106537534" as="geometry" />
        </mxCell>
        <mxCell id="fInblSoTqD6ojxP8-tg6-41" value="FILE ID" style="rounded=0;whiteSpace=wrap;html=1;dashed=1;fontSize=28;fontColor=#FFFFFF;strokeColor=#FFFFFF;strokeWidth=2;fillColor=none;" vertex="1" parent="fInblSoTqD6ojxP8-tg6-40">
          <mxGeometry width="130.59701492537314" height="62.615012106537534" as="geometry" />
        </mxCell>
        <mxCell id="fInblSoTqD6ojxP8-tg6-42" value="VSZ" style="rounded=0;whiteSpace=wrap;html=1;dashed=1;fontSize=28;fontColor=#FFFFFF;strokeColor=#FFFFFF;strokeWidth=2;fillColor=none;" vertex="1" parent="fInblSoTqD6ojxP8-tg6-40">
          <mxGeometry x="130.59701492537314" width="130.59701492537314" height="62.615012106537534" as="geometry" />
        </mxCell>
        <mxCell id="fInblSoTqD6ojxP8-tg6-43" value="VPOS" style="rounded=0;whiteSpace=wrap;html=1;dashed=1;fontSize=28;fontColor=#FFFFFF;strokeColor=#FFFFFF;strokeWidth=2;fillColor=none;" vertex="1" parent="fInblSoTqD6ojxP8-tg6-40">
          <mxGeometry x="261.1940298507463" width="130.59701492537314" height="62.615012106537534" as="geometry" />
        </mxCell>
        <mxCell id="fInblSoTqD6ojxP8-tg6-44" value="TSTAMP" style="rounded=0;whiteSpace=wrap;html=1;dashed=1;fontSize=28;fontColor=#FFFFFF;strokeColor=#FFFFFF;strokeWidth=2;fillColor=none;" vertex="1" parent="fInblSoTqD6ojxP8-tg6-40">
          <mxGeometry x="391.7910447761194" width="206.77860696517413" height="62.615012106537534" as="geometry" />
        </mxCell>
        <mxCell id="fInblSoTqD6ojxP8-tg6-45" value="" style="group" vertex="1" connectable="0" parent="fInblSoTqD6ojxP8-tg6-53">
          <mxGeometry x="273.1654228855721" y="272.3753026634383" width="598.5696517412936" height="62.615012106537534" as="geometry" />
        </mxCell>
        <mxCell id="fInblSoTqD6ojxP8-tg6-46" value="FILE ID" style="rounded=0;whiteSpace=wrap;html=1;dashed=1;fontSize=28;fontColor=#FFFFFF;strokeColor=#FFFFFF;strokeWidth=2;fillColor=none;" vertex="1" parent="fInblSoTqD6ojxP8-tg6-45">
          <mxGeometry width="130.59701492537314" height="62.615012106537534" as="geometry" />
        </mxCell>
        <mxCell id="fInblSoTqD6ojxP8-tg6-47" value="VSZ" style="rounded=0;whiteSpace=wrap;html=1;dashed=1;fontSize=28;fontColor=#FFFFFF;strokeColor=#FFFFFF;strokeWidth=2;fillColor=none;" vertex="1" parent="fInblSoTqD6ojxP8-tg6-45">
          <mxGeometry x="130.59701492537314" width="130.59701492537314" height="62.615012106537534" as="geometry" />
        </mxCell>
        <mxCell id="fInblSoTqD6ojxP8-tg6-48" value="VPOS" style="rounded=0;whiteSpace=wrap;html=1;dashed=1;fontSize=28;fontColor=#FFFFFF;strokeColor=#FFFFFF;strokeWidth=2;fillColor=none;" vertex="1" parent="fInblSoTqD6ojxP8-tg6-45">
          <mxGeometry x="261.1940298507463" width="130.59701492537314" height="62.615012106537534" as="geometry" />
        </mxCell>
        <mxCell id="fInblSoTqD6ojxP8-tg6-49" value="TSTAMP" style="rounded=0;whiteSpace=wrap;html=1;dashed=1;fontSize=28;fontColor=#FFFFFF;strokeColor=#FFFFFF;strokeWidth=2;fillColor=none;" vertex="1" parent="fInblSoTqD6ojxP8-tg6-45">
          <mxGeometry x="391.7910447761194" width="206.77860696517413" height="62.615012106537534" as="geometry" />
        </mxCell>
        <mxCell id="fInblSoTqD6ojxP8-tg6-50" style="edgeStyle=orthogonalEdgeStyle;rounded=0;orthogonalLoop=1;jettySize=auto;html=1;fontSize=28;fontColor=#FFFFFF;strokeWidth=2;strokeColor=#FFFFFF;dashed=1;" edge="1" parent="fInblSoTqD6ojxP8-tg6-53">
          <mxGeometry relative="1" as="geometry">
            <mxPoint x="257.92910447761193" y="148.18886198547216" as="targetPoint" />
            <mxPoint x="121.8905472636816" y="148.18886198547216" as="sourcePoint" />
          </mxGeometry>
        </mxCell>
        <mxCell id="fInblSoTqD6ojxP8-tg6-51" style="edgeStyle=orthogonalEdgeStyle;rounded=0;orthogonalLoop=1;jettySize=auto;html=1;fontSize=28;fontColor=#FFFFFF;strokeWidth=2;strokeColor=#FFFFFF;dashed=1;" edge="1" parent="fInblSoTqD6ojxP8-tg6-53">
          <mxGeometry relative="1" as="geometry">
            <mxPoint x="259.01741293532336" y="225.9358353510896" as="targetPoint" />
            <mxPoint x="122.97885572139303" y="225.9358353510896" as="sourcePoint" />
          </mxGeometry>
        </mxCell>
        <mxCell id="fInblSoTqD6ojxP8-tg6-52" style="edgeStyle=orthogonalEdgeStyle;rounded=0;orthogonalLoop=1;jettySize=auto;html=1;fontSize=28;fontColor=#FFFFFF;strokeWidth=2;strokeColor=#FFFFFF;dashed=1;" edge="1" parent="fInblSoTqD6ojxP8-tg6-53">
          <mxGeometry relative="1" as="geometry">
            <mxPoint x="257.92910447761193" y="303.16101694915255" as="targetPoint" />
            <mxPoint x="121.8905472636816" y="303.16101694915255" as="sourcePoint" />
          </mxGeometry>
        </mxCell>
      </root>
    </mxGraphModel>
  </diagram>
</mxfile>
